<svg
  width="179"
  height="34"
  viewBox="0 0 179 34"
  fill="none"
  xmlns="http://www.w3.org/2000/svg"
>
  <g clip-path="url(#clip0_2258_3706)">
    <path
      d="M25.3447 26.5086H12.7595C5.71258 26.5086 0 20.7763 0 13.705V1.07645C0 0.481339 0.479682 0 1.07274 0H5.32011C5.91317 0 6.39286 0.481339 6.39286 1.07645V13.2499C6.39286 17.0306 9.44538 20.0937 13.2131 20.0937C16.972 20.0937 20.0246 17.0306 20.0246 13.2587V1.07645C20.0246 0.481339 20.5042 0 21.0973 0H25.3447C25.9377 0 26.4174 0.481339 26.4174 1.07645V25.4322C26.4174 26.0273 25.9377 26.5086 25.3447 26.5086Z"
      fill="#0096FF"
    />
    <path
      d="M44.5232 5.02348C44.5232 6.84381 43.3284 8.4366 41.5928 8.95295L35.4005 10.7908C32.7841 11.5697 30.1502 9.60057 30.1502 6.86132C30.1502 5.24227 31.1008 3.772 32.5748 3.11563L37.9298 0.726437C41.0259 -0.656317 44.5145 1.6191 44.5145 5.02348H44.5232Z"
      fill="#45D8F9"
    />
    <path
      d="M48.6311 1.61914H54.6664V19.1924C54.6664 20.9077 54.9803 21.5028 56.3409 21.5028C56.7246 21.5028 57.0735 21.4678 57.0735 21.4678V26.7188C57.0735 26.7188 56.2362 26.8238 55.2594 26.8238C52.0499 26.8238 48.6311 26.0536 48.6311 19.9975V1.61914Z"
      fill="white"
    />
    <path
      d="M64.8879 26.6486C61.5389 26.6486 58.7829 24.8283 58.7829 21.2576C58.7829 16.0066 66.4229 15.4115 69.2138 15.4115H69.458V15.0965C69.458 13.5912 68.3068 13.1011 66.8067 13.1011C64.5391 13.1011 61.9575 14.8164 61.9575 14.8164L59.8644 10.5456C59.8644 10.5456 62.9692 8.2002 67.3997 8.2002C72.4582 8.2002 75.4933 10.9657 75.4933 15.5515V26.6486H69.9813M66.5625 22.4478C68.1323 22.4478 69.5278 20.7325 69.5278 19.2622V18.8772H68.9696C67.0509 18.8772 64.8531 19.4373 64.8531 20.9425C64.8531 21.7827 65.3763 22.4478 66.5625 22.4478Z"
      fill="white"
    />
    <path
      d="M113.205 8.61182C116.833 8.61182 119.659 11.2548 119.659 14.9567V26.6489H113.624V16.0769C113.624 14.3966 112.324 13.3814 110.728 13.4602C109.385 13.4515 107.684 14.3966 107.754 16.1557C107.754 18.2648 107.719 26.6489 107.719 26.6489H101.684V8.62057H107.475"
      fill="white"
    />
    <path
      d="M85.7585 26.6489C82.1303 26.6489 79.3046 24.0059 79.3046 20.304V8.61182H85.3398V19.1838C85.3398 20.8641 86.6393 21.8793 88.2354 21.8005C89.5785 21.8092 91.2792 20.8641 91.2094 19.105C91.2094 16.9959 91.2443 8.61182 91.2443 8.61182H97.2796V26.6401H91.4885"
      fill="white"
    />
    <path
      d="M130.735 26.7625C125.86 26.7625 122.659 23.2094 122.659 17.6171C122.659 12.0248 126.078 8.20035 130.857 8.20035C134.485 8.20035 135.567 9.63561 135.567 9.63561H135.637C135.637 9.63561 135.602 9.28555 135.602 8.83047V1.61914H141.637V26.6487M132.253 22.0629C134.067 22.0629 135.776 20.7327 135.776 17.6171C135.776 15.4467 134.625 13.3113 132.253 13.3113C130.369 13.3113 128.729 14.8516 128.729 17.6171C128.729 20.3826 130.16 22.0629 132.253 22.0629Z"
      fill="white"
    />
    <path
      d="M146.103 8.62023H151.894V11.6658C151.894 12.2609 151.824 12.786 151.824 12.786H151.894C152.661 10.3355 154.929 8.30518 157.615 8.30518C157.964 8.30518 158.313 8.37519 158.313 8.37519V14.3263C158.313 14.3263 157.824 14.2213 157.092 14.2213C155.661 14.2213 153.324 14.6763 152.452 17.3718C152.242 18.037 152.138 18.8421 152.138 19.8223V26.6486H146.103V8.62023Z"
      fill="white"
    />
    <path
      d="M161.871 28.2942C161.871 28.2942 162.848 28.9593 163.72 28.9593C164.697 28.9593 165.988 28.6793 166.615 27.139L166.964 26.2989L159.324 8.62061H166.162L168.813 16.9171C169.127 17.8973 169.476 19.7176 169.476 19.7176H169.546C169.546 19.7176 169.895 18.0023 170.139 17.0222L172.407 8.62061H179L171.639 28.5743C170.139 32.6 166.999 34.0003 164.139 34.0003C161.766 34.0003 159.952 32.74 159.952 32.74L161.871 28.2942Z"
      fill="white"
    />
  </g>
  <defs>
    <clipPath id="clip0_2258_3706">
      <rect width="179" height="34" fill="white" />
    </clipPath>
  </defs>
</svg>
