<svg width="30" height="30" viewBox="0 0 30 30" fill="none" xmlns="http://www.w3.org/2000/svg">
<path d="M17.4587 17.2963C16.5012 17.2963 15.9762 17.165 15.17 16.8338L14.8713 16.6975L14.5325 18.6663C15.115 18.9063 16.165 19.1125 17.2512 19.1288C19.8025 19.1288 21.47 17.945 21.49 16.1238C21.51 15.1225 20.8525 14.3625 19.4638 13.7363C18.6213 13.33 18.0963 13.0575 18.0963 12.645C18.0963 12.28 18.545 11.8913 19.4825 11.8913C20.1055 11.8763 20.7248 11.9908 21.3013 12.2275L21.5263 12.3275L21.865 10.425L21.8062 10.4375C21.1086 10.1871 20.3724 10.0615 19.6313 10.0663C17.2313 10.0663 15.5375 11.2588 15.525 12.9675C15.51 14.2238 16.73 14.9313 17.6513 15.3525C18.5975 15.7838 18.9137 16.055 18.9112 16.4425C18.905 17.0313 18.155 17.2963 17.4587 17.2963ZM28.035 10.2275H26.16C25.5763 10.2275 25.14 10.3838 24.8837 10.9563L21.2775 19.0063H23.8288L24.3388 17.6888L27.4513 17.6913C27.5275 17.9988 27.7513 19.0063 27.7513 19.0063H30L28.035 10.2275ZM25.0375 15.8875L26.005 13.4338C25.9925 13.4588 26.205 12.9263 26.3275 12.5963L26.4937 13.3538L27.055 15.8875H25.0375ZM10.555 18.9363H12.985L14.5037 10.1538H12.075V10.1513L10.555 18.9363ZM6.15375 16.2138L5.90125 14.9938V14.9975L5.04875 10.965C4.9025 10.4063 4.475 10.2413 3.945 10.2213H0.03125L0 10.4063C0.88125 10.6125 1.675 10.9113 2.385 11.2775C2.49525 11.342 2.57598 11.4469 2.61 11.57L4.71 18.9938H7.2775L11.1038 10.2275H8.53L6.15375 16.2138Z" fill="#191E6E"/>
</svg>
