<svg width="150" height="29" viewBox="0 0 150 29" fill="none" xmlns="http://www.w3.org/2000/svg">
<g clip-path="url(#clip0_1653_1387)">
<path d="M21.2385 22.2139H10.6924C4.78708 22.2139 0 17.4103 0 11.4847V0.902051C0 0.403356 0.401968 0 0.898948 0H4.45819C4.95517 0 5.35714 0.403356 5.35714 0.902051V11.1033C5.35714 14.2715 7.91512 16.8383 11.0724 16.8383C14.2224 16.8383 16.7804 14.2715 16.7804 11.1106V0.902051C16.7804 0.403356 17.1823 0 17.6793 0H21.2385C21.7355 0 22.1375 0.403356 22.1375 0.902051V21.3119C22.1375 21.8106 21.7355 22.2139 21.2385 22.2139Z" fill="#0096FF"/>
<path d="M37.3101 4.20945C37.3101 5.73487 36.3088 7.06961 34.8544 7.50231L29.6654 9.04239C27.4728 9.6951 25.2656 8.045 25.2656 5.74954C25.2656 4.3928 26.0623 3.16072 27.2974 2.61069L31.7848 0.60858C34.3793 -0.550153 37.3028 1.35662 37.3028 4.20945H37.3101Z" fill="#45D8F9"/>
<path d="M40.7524 1.35669H45.8099V16.0829C45.8099 17.5203 46.073 18.019 47.2132 18.019C47.5347 18.019 47.8271 17.9896 47.8271 17.9896V22.3899C47.8271 22.3899 47.1255 22.4779 46.3069 22.4779C43.6174 22.4779 40.7524 21.8325 40.7524 16.7576V1.35669Z" fill="#1D1D1D"/>
<path d="M54.3757 22.3311C51.5693 22.3311 49.2598 20.8057 49.2598 17.8135C49.2598 13.4133 55.662 12.9146 58.0008 12.9146H58.2054V12.6506C58.2054 11.3892 57.2407 10.9785 55.9836 10.9785C54.0834 10.9785 51.9201 12.4159 51.9201 12.4159L50.166 8.83703C50.166 8.83703 52.7679 6.87158 56.4806 6.87158C60.7195 6.87158 63.2629 9.18905 63.2629 13.0319V22.3311H58.6439M55.779 18.8109C57.0945 18.8109 58.2639 17.3735 58.2639 16.1414V15.8188H57.7961C56.1882 15.8188 54.3465 16.2881 54.3465 17.5495C54.3465 18.2536 54.785 18.8109 55.779 18.8109Z" fill="#1D1D1D"/>
<path d="M94.8645 7.21631C97.9049 7.21631 100.273 9.4311 100.273 12.5333V22.3312H95.2153V13.472C95.2153 12.0639 94.1264 11.2132 92.7889 11.2792C91.6634 11.2719 90.2382 12.0639 90.2967 13.538C90.2967 15.3054 90.2675 22.3312 90.2675 22.3312H85.21V7.22364H90.0628" fill="#1D1D1D"/>
<path d="M71.8648 22.3312C68.8245 22.3312 66.4565 20.1164 66.4565 17.0142V7.21631H71.514V16.0755C71.514 17.4836 72.603 18.3343 73.9405 18.2683C75.066 18.2756 76.4911 17.4836 76.4327 16.0095C76.4327 14.242 76.4619 7.21631 76.4619 7.21631H81.5194V22.3238H76.6665" fill="#1D1D1D"/>
<path d="M109.555 22.4266C105.469 22.4266 102.787 19.4491 102.787 14.7628C102.787 10.0765 105.652 6.87167 109.657 6.87167C112.697 6.87167 113.604 8.07441 113.604 8.07441H113.662C113.662 8.07441 113.633 7.78105 113.633 7.3997V1.35669H118.69V22.3312M110.826 18.4883C112.347 18.4883 113.779 17.3736 113.779 14.7628C113.779 12.944 112.814 11.1546 110.826 11.1546C109.248 11.1546 107.874 12.4453 107.874 14.7628C107.874 17.0802 109.072 18.4883 110.826 18.4883Z" fill="#1D1D1D"/>
<path d="M122.433 7.22373H127.285V9.77588C127.285 10.2746 127.227 10.7146 127.227 10.7146H127.285C127.929 8.66115 129.829 6.95972 132.08 6.95972C132.372 6.95972 132.665 7.01839 132.665 7.01839V12.0053C132.665 12.0053 132.255 11.9173 131.641 11.9173C130.443 11.9173 128.484 12.2987 127.753 14.5575C127.578 15.1148 127.49 15.7896 127.49 16.6109V22.3313H122.433V7.22373Z" fill="#1D1D1D"/>
<path d="M135.646 23.7099C135.646 23.7099 136.465 24.2673 137.196 24.2673C138.014 24.2673 139.096 24.0326 139.622 22.7418L139.914 22.0378L133.512 7.22363H139.242L141.464 14.176C141.727 14.9974 142.019 16.5228 142.019 16.5228H142.078C142.078 16.5228 142.37 15.0854 142.575 14.264L144.475 7.22363H150L143.832 23.9446C142.575 27.3181 139.944 28.4915 137.547 28.4915C135.559 28.4915 134.038 27.4354 134.038 27.4354L135.646 23.7099Z" fill="#1D1D1D"/>
</g>
<defs>
<clipPath id="clip0_1653_1387">
<rect width="150" height="28.4916" fill="white"/>
</clipPath>
</defs>
</svg>
