<svg
  width="148"
  height="52"
  viewBox="0 0 148 52"
  fill="none"
  xmlns="http://www.w3.org/2000/svg"
>
  <path
    d="M41.4668 19.7854V26.9663C41.4949 28.1026 41.2568 29.2297 40.7716 30.258C40.3446 31.1423 39.6607 31.8779 38.8091 32.3689C37.8605 32.8521 36.8107 33.104 35.7458 33.104C34.6808 33.104 33.631 32.8521 32.6825 32.3689C31.8289 31.8788 31.1433 31.1431 30.7151 30.258C30.2352 29.2283 30.0013 28.1015 30.032 26.9663V19.7854H32.7187V26.6362C32.6966 27.4111 32.8127 28.1838 33.0615 28.9182C33.2502 29.479 33.6106 29.9665 34.0918 30.3119C34.573 30.6573 35.1507 30.8431 35.7433 30.8431C36.336 30.8431 36.9137 30.6573 37.3949 30.3119C37.8761 29.9665 38.2365 29.479 38.4252 28.9182C38.6761 28.1842 38.793 27.4113 38.7704 26.6362V19.7854H41.4668Z"
    fill="#f9fafb"
  />
  <path
    d="M54.1659 32.8436H51.1919L48.4448 28.123H46.2723V32.8436H43.5952V19.7854H48.5655C49.4916 19.7604 50.4126 19.9295 51.2691 20.2818C51.9751 20.5745 52.5759 21.0734 52.9927 21.7131C53.4044 22.387 53.6122 23.1652 53.5914 23.9542C53.6149 24.7625 53.3946 25.5592 52.9589 26.241C52.5171 26.8857 51.8877 27.3794 51.1557 27.6555L54.1659 32.8436ZM46.2819 25.9904H48.3652C49.1618 25.9904 49.7741 25.8233 50.2022 25.4891C50.4033 25.3084 50.5641 25.0874 50.6742 24.8406C50.7842 24.5939 50.8411 24.3267 50.8411 24.0566C50.8411 23.7864 50.7842 23.5193 50.6742 23.2725C50.5641 23.0257 50.4033 22.8048 50.2022 22.624C49.7757 22.2915 49.1634 22.1252 48.3652 22.1252H46.2819V25.9904Z"
    fill="#f9fafb"
  />
  <path
    d="M68.1916 32.8436H59.6438V19.7854H62.3305V30.5038H68.1916V32.8436Z"
    fill="#f9fafb"
  />
  <path
    d="M71.5854 32.8436H68.7732L73.9825 19.7854H76.8189L82.0257 32.846H79.2087L78.1345 30.0411H72.6572L71.5854 32.8436ZM73.5383 27.6892H77.263L75.3971 22.8481L73.5383 27.6892Z"
    fill="#f9fafb"
  />
  <path
    d="M94.5511 19.7854V26.9663C94.5849 28.1008 94.3543 29.2276 93.8776 30.258C93.4506 31.1423 92.7668 31.8779 91.9151 32.3689C90.9665 32.8521 89.9168 33.104 88.8518 33.104C87.7869 33.104 86.7371 32.8521 85.7885 32.3689C84.9344 31.8795 84.2486 31.1436 83.8212 30.258C83.3403 29.2286 83.1057 28.1017 83.1356 26.9663V19.7854H85.8223V26.6362C85.8009 27.4113 85.9178 28.184 86.1675 28.9182C86.3574 29.4779 86.7183 29.9641 87.1993 30.3084C87.6804 30.6528 88.2575 30.838 88.8494 30.838C89.4414 30.838 90.0184 30.6528 90.4995 30.3084C90.9805 29.9641 91.3414 29.4779 91.5313 28.9182C91.781 28.184 91.8979 27.4113 91.8765 26.6362V19.7854H94.5511Z"
    fill="#f9fafb"
  />
  <path
    d="M108.567 32.8436H105.479L99.3649 23.9277V32.8436H96.6782V19.7854H99.7657L105.88 28.7182V19.7854H108.567V32.8436Z"
    fill="#f9fafb"
  />
  <path
    d="M110.696 32.8436V19.7854H114.978C116.388 19.7525 117.788 20.0255 119.082 20.5854C120.193 21.0766 121.138 21.8795 121.801 22.8965C122.465 23.9136 122.818 25.101 122.818 26.3145C122.818 27.528 122.465 28.7154 121.801 29.7325C121.138 30.7495 120.193 31.5524 119.082 32.0436C117.789 32.6054 116.388 32.8793 114.978 32.846L110.696 32.8436ZM113.383 30.5014H115.072C115.982 30.5302 116.887 30.3659 117.728 30.0194C118.418 29.7278 119.001 29.2293 119.396 28.5929C119.792 27.9041 119.989 27.1192 119.965 26.3253C119.99 25.5298 119.793 24.743 119.396 24.053C119 23.4183 118.417 22.9209 117.728 22.6289C116.886 22.2836 115.981 22.1193 115.072 22.1469H113.383V30.5014Z"
    fill="#f9fafb"
  />
  <path
    d="M134.968 32.8436H131.994L129.247 28.123H127.074V32.8436H124.397V19.7854H129.363C130.289 19.7606 131.21 19.9297 132.066 20.2818C132.774 20.574 133.378 21.0729 133.797 21.7131C134.208 22.3872 134.415 23.1654 134.393 23.9542C134.418 24.7626 134.198 25.5597 133.761 26.241C133.32 26.8856 132.691 27.3794 131.96 27.6555L134.968 32.8436ZM127.084 25.9904H129.17C129.966 25.9904 130.578 25.8233 131.004 25.4892C131.205 25.3084 131.366 25.0874 131.476 24.8406C131.586 24.5939 131.643 24.3267 131.643 24.0566C131.643 23.7864 131.586 23.5193 131.476 23.2725C131.366 23.0257 131.205 22.8048 131.004 22.624C130.578 22.2915 129.966 22.1252 129.17 22.1252H127.084V25.9904Z"
    fill="#f9fafb"
  />
  <path
    d="M142.768 32.8436H140.081V27.2555L135.125 19.7854H138.389L141.406 24.9036L144.46 19.7854H147.721L142.768 27.2723V32.8436Z"
    fill="#f9fafb"
  />
  <path
    fill-rule="evenodd"
    clip-rule="evenodd"
    d="M0.551758 0.116425H62.4037V10.9418H59.6934V2.82678H3.26211V49.1732H59.6934V40.5498H62.4037V51.8836H0.551758V0.116425Z"
    fill="#f9fafb"
  />
  <path
    d="M61.0164 36.9184L65.7767 44.3644H56.2585L61.0164 36.9184Z"
    fill="#f9fafb"
  />
  <path
    d="M61.0164 14.4599L56.2585 7.01394H65.7767L61.0164 14.4599Z"
    fill="#f9fafb"
  />
</svg>
