<svg width="1236" height="651" viewBox="0 0 1236 651" fill="none" xmlns="http://www.w3.org/2000/svg">
<rect width="1235.23" height="651" fill="white"/>
<path d="M999.059 172.677V127.608C999.059 123.602 997.056 121.598 993.05 121.598H927.549C923.543 121.598 921.54 123.602 921.54 127.608V241.783C921.54 244.587 922.742 246.39 925.146 247.191H993.05C1006.67 247.191 1018.09 251.999 1027.3 261.614C1036.52 270.828 1041.12 282.045 1041.12 295.265V453.308C1041.12 465.327 1037.32 475.742 1029.71 484.556C1022.09 493.37 1012.48 498.778 1000.86 500.781H919.737C908.12 498.778 898.505 493.37 890.893 484.556C883.281 475.742 879.476 465.327 879.476 453.308V408.239H921.54V453.308C921.54 457.314 923.543 459.317 927.549 459.317H993.05C997.056 459.317 999.059 457.314 999.059 453.308V295.265C999.059 292.461 997.857 290.658 995.454 289.857H927.549C914.329 289.857 902.912 285.25 893.297 276.036C884.083 266.421 879.476 255.003 879.476 241.783V127.608C879.476 115.589 883.281 105.173 890.893 96.3597C898.505 87.5462 908.12 82.1378 919.737 80.1348H1000.86C1012.48 82.1378 1022.09 87.5462 1029.71 96.3597C1037.32 105.173 1041.12 115.589 1041.12 127.608V172.677H999.059Z" fill="#24245F"/>
<path d="M760.107 164.865L729.46 358.963H760.107V401.028H722.849L706.625 500.781H663.959L680.184 401.028H663.959V358.963H686.794L731.262 80.1348H788.951L856.254 500.781H813.589L760.107 164.865Z" fill="#F5AB1D"/>
<path d="M633.933 80.1348L560.019 355.958V500.781H517.955V355.958L444.041 80.1348H486.707L538.987 271.829L591.267 80.1348H633.933Z" fill="#24245F"/>
<path d="M404.164 458.115V500.781H252.731V458.115V80.1348H294.796V458.115H404.164Z" fill="#24245F"/>
<path d="M213.813 500.781H171.748V80.1348H213.813V500.781Z" fill="#24245F"/>
<path d="M888.359 537.512H893.033V584.25H885.689L879.012 563.351V584.25H871.667V537.512H874.338H879.012V537.645L885.689 559.679V537.512H888.359Z" fill="#24245F"/>
<path d="M758.767 537.512C760.013 537.734 761.059 538.357 761.905 539.381C762.751 540.361 763.174 541.496 763.174 542.786V547.794V549.797V549.931V574.034V579.042C763.174 580.333 762.751 581.468 761.905 582.447C761.059 583.427 760.013 584.028 758.767 584.25H746.415C745.168 584.028 744.122 583.427 743.276 582.447C742.431 581.468 742.008 580.333 742.008 579.042V542.786C742.008 541.496 742.431 540.361 743.276 539.381C744.122 538.357 745.168 537.734 746.415 537.512H758.767ZM755.829 549.797V547.794V544.856H749.352V576.972H755.829V574.034V549.931V549.797Z" fill="#24245F"/>
<path d="M621.797 576.906H633.415V584.25H621.797H614.452V576.906V537.512H621.797V576.906Z" fill="#24245F"/>
<path d="M500.116 537.512L507.661 584.25H500.183L495.576 551.8L493.706 567.09V567.157H495.576V574.502H492.504L490.969 584.25H483.557L485.093 574.502H483.424V567.157H486.295L491.036 537.512H500.116Z" fill="#24245F"/>
<path d="M373.31 539.715C374.378 541.006 374.912 542.453 374.912 544.055V549.063V550.398H373.577H368.903H367.568V549.063V544.79H361.959V553.136V553.47H368.236C370.105 553.47 371.685 554.115 372.976 555.406C374.267 556.697 374.912 558.277 374.912 560.146V566.823V577.64C374.912 579.242 374.378 580.689 373.31 581.98C372.242 583.182 370.906 583.916 369.304 584.183L369.17 584.25H369.104H360.357H360.29L360.156 584.183C358.554 583.916 357.219 583.182 356.15 581.98C355.082 580.689 354.548 579.242 354.548 577.64V572.632V571.297H355.883H360.624H361.959V572.632V576.906H367.568V560.881H361.225C359.355 560.881 357.775 560.236 356.484 558.945C355.193 557.654 354.548 556.074 354.548 554.204V553.737V553.136V544.055C354.548 542.453 355.082 541.006 356.15 539.715C357.219 538.513 358.554 537.779 360.156 537.512H360.29H360.357H369.104H369.17H369.304C370.906 537.779 372.242 538.513 373.31 539.715Z" fill="#24245F"/>
</svg>
